# xmcd
#
# Track frame offsets:
#	150
#	31057
#	53430
#	73877
#	92645
#	112990
#	136165
#	156602
#	180707
#	201715
#
# Disc length: 3016 seconds
#
# Revision: 3996789274
# Processed by: cddbd v1.5.2PL0 Copyright (c) Steve Scherf et al.
# Submitted via: EZCDAudioConverter 8.0.2.1
#
DISCID=8b0bc60a
DTITLE=Tuấn Vũ - Tuyệt Phẩm Để Đời 2
DYEAR=1992
DGENRE=World Pop
TTITLE0=Tâm sự với em
TTITLE1=Thành phố sau lưng
TTITLE2=Yêu một mình
TTITLE3=Chiều cuối tuần
TTITLE4=Mưa nửa đêm
TTITLE5=Chuyện chúng mình
TTITLE6=Mùa mưa đi qua
TTITLE7=Tâm sự người lính trẻ
TTITLE8=Ngoại ô buồn
TTITLE9=Người yêu cô đơn
EXTD=
EXTT0=
EXTT1=
EXTT2=
EXTT3=
EXTT4=
EXTT5=
EXTT6=
EXTT7=
EXTT8=
EXTT9=
PLAYORDER=
